<?xml version="1.0" encoding="UTF-8"?> <!-- Generator: Adobe Illustrator 23.0.1, SVG Export Plug-In . SVG Version: 6.00 Build 0) --> <svg xmlns="http://www.w3.org/2000/svg" xmlns:xlink="http://www.w3.org/1999/xlink" version="1.1" id="Layer_1" x="0px" y="0px" viewBox="0 0 270 52.2" style="enable-background:new 0 0 270 52.2;" xml:space="preserve"> <style type="text/css"> .st0{fill:#23B58B;} </style> <g> <path class="st0" d="M32,33.1c1.7,1.7,3.4,3.4,5.1,5.1c2.2,2.2,4.5,4.4,6.7,6.7c2.3,2.4,1.4,6.2-1.7,7.2c-1.7,0.5-3.2,0.2-4.5-1.1 c-6-6-12-12-18.1-18c-1.3-1.3-1.6-2.8-1.1-4.5c0.5-1.6,1.6-2.6,3.3-3c0.3-0.1,0.7-0.1,1-0.1c1.4,0,2.9,0,4.3-0.1 c4.4-0.3,7.8-4.5,7.5-8.9c-0.3-3.8-3.5-7.1-7-7.6c-1.1-0.1-2.2-0.1-3.4-0.1c-0.9,0-1.8,0-2.6-0.1c-2-0.4-3.4-2.3-3.3-4.4 c0.1-2.1,1.7-4,3.8-4.1C24.2,0,26.4,0,28.6,0.2c4.7,0.5,8.3,2.9,11.2,6.6c6.5,8.3,3.7,21.6-7.4,26.1C32.3,32.9,32.1,33,32,33.1z"></path> <path class="st0" d="M8.7,26.1c0,7.2,0,14.3,0,21.5c0,2.2-1.3,4-3.3,4.4C2.6,52.7,0,50.7,0,47.9c0-14.5,0-29,0-43.6 C0,2.1,1.7,0.2,3.8,0c2.3-0.2,4.3,1.2,4.8,3.4c0.1,0.4,0.1,0.8,0.1,1.3C8.7,11.8,8.7,19,8.7,26.1z"></path> <path class="st0" d="M156.3,33c0.1-0.3,0.2-0.5,0.4-0.8c1,0.4,2.1,0.6,3.2,0.5c3.4-0.2,6.2-3.5,6-7c-0.2-3.2-2.7-5.8-6-6.2 c-3.1-0.3-6.2,1.8-7,4.8c-0.2,0.6-0.2,1.2-0.2,1.8c0,4.1,0,8.3,0,12.4c0,0.2,0,0.4,0,0.6c-0.3,0-0.6,0-0.9,0c0-0.1,0-0.2,0-0.4 c0-4.3,0-8.5,0-12.8c0-3.1,1.6-5.3,4.3-6.6c2.6-1.3,5.3-1.1,7.6,0.6c2.6,1.9,3.7,4.6,3,7.8c-0.7,3.1-2.9,5-6,5.7 C159.2,33.8,157.8,33.6,156.3,33z"></path> <path class="st0" d="M242.9,25c-3.6,0-7.2,0-10.8,0c0-0.3,0-0.6,0-0.9c3.2,0,6.4,0,9.7,0c-0.3-1.9-2.5-4.1-5.1-4.5 c-2.9-0.5-6,1.3-7.2,4.2c-1.1,2.8-0.1,6.1,2.5,7.8c2.1,1.5,6,1.7,8.5-1.1c0.2,0.2,0.4,0.4,0.6,0.6c-2.6,2.8-6.4,3.2-9.2,1.6 c-3.2-1.9-4.7-5.7-3.4-9.1c1.3-3.4,4.8-5.4,8.4-4.8C240.1,19.3,242.7,22.2,242.9,25z"></path> <path class="st0" d="M80.6,33.3c-0.3,0-0.6,0-0.9,0c0-6.7,0-13.5,0-20.2c0.3,0,0.5,0,0.8,0c0,3.1,0,6.2,0,9.3c0,0,0.1,0,0.1,0 c0.1-0.1,0.1-0.2,0.2-0.3c1.2-1.7,2.7-3,4.8-3.5c4.5-1,9,2.5,9,7.2c0,2.4,0,4.7,0,7.1c0,0.1,0,0.2,0,0.3c-0.3,0-0.6,0-0.9,0 c0-0.2,0-0.3,0-0.5c0-2.2,0-4.5,0-6.7c0-3.4-2.6-6.3-6-6.6c-3.3-0.3-6.5,2.1-7.1,5.4c-0.1,0.4-0.1,0.9-0.1,1.3c0,2.2,0,4.4,0,6.5 C80.6,32.9,80.6,33.1,80.6,33.3z"></path> <path class="st0" d="M270,28.6c-1,2.9-4,5.1-7.1,4.9c-3.2-0.1-5.9-1.7-6.9-4.6c0.3-0.1,0.5-0.2,0.8-0.3c1.4,2.8,3.7,4.2,6.9,4 c2.3-0.2,3.9-1.5,5.2-3.5c-4.3-1.9-8.6-3.8-12.9-5.6c0.3-2,3.1-4.4,5.6-4.8c3-0.5,6.3,0.9,7.6,3.3c-0.2,0.2-0.5,0.3-0.7,0.5 c-3.3-4.6-9.4-3.3-11.3,0.6C261.4,24.9,265.7,26.8,270,28.6z"></path> <path class="st0" d="M131.4,33.5c-4.1,0-7.5-3.4-7.5-7.5c0-4.2,3.3-7.5,7.5-7.5c4.2,0,7.5,3.4,7.5,7.5 C138.9,30.2,135.5,33.5,131.4,33.5z M131.4,32.6c3.7,0,6.6-2.9,6.6-6.6c0-3.6-3-6.6-6.6-6.6c-3.6,0-6.6,3-6.6,6.6 C124.8,29.7,127.8,32.6,131.4,32.6z"></path> <path class="st0" d="M185,33.3c-0.3,0-0.6,0-0.9,0c0-0.2,0-0.4,0-0.5c0-2.2,0-4.4,0-6.6c0-2.8-1.5-5.1-4.1-6.2 c-2.5-1-5.3-0.5-7.2,1.4c-2,1.9-2.5,4.9-1.3,7.4c1.2,2.6,3.9,4.1,6.7,3.8c0.3,0,0.6-0.1,0.9-0.2c0.3-0.1,0.6-0.2,1-0.3 c0.1,0.2,0.2,0.5,0.4,0.8c-0.8,0.4-1.6,0.6-2.5,0.6c-3.8,0.2-7.4-2.7-7.9-6.3c-0.5-4.1,2-7.8,5.9-8.5c4.8-1,9.1,2.8,9,7.3 c0,2.3,0,4.5,0,6.8C185,33,185,33.1,185,33.3z"></path> <path class="st0" d="M224.3,33.3c-0.3,0-0.6,0-0.9,0c0-0.2,0-0.4,0-0.5c0-2.3,0-4.5,0-6.8c0-4.6-4.8-7.8-9-6.1 c-2.5,1-4.1,3.4-4.1,6.1c0,2.3,0,4.5,0,6.8c0,0.2,0,0.3,0,0.5c-0.3,0-0.6,0-1,0c0-0.2,0-0.3,0-0.5c0-2.3,0-4.5,0-6.8 c0-4,3.2-7.1,6.6-7.5c4-0.4,7.5,2.1,8.3,5.9c0.1,0.4,0.1,0.9,0.1,1.3c0,2.4,0,4.8,0,7.2C224.3,33.1,224.3,33.2,224.3,33.3z"></path> <path class="st0" d="M120.2,33.3c-0.3,0-0.6,0-0.9,0c0-0.2,0-0.4,0-0.5c0-2.3,0-4.6,0-6.8c-0.1-4.6-4.8-7.7-9.1-6 c-2.5,1-4.1,3.5-4.1,6.1c0,2.2,0,4.5,0,6.7c0,0.2,0,0.4,0,0.5c-0.3,0-0.6,0-0.9,0c0-0.2,0-0.3,0-0.5c0-2.3,0-4.6,0-6.9 c0-3.7,2.9-6.9,6.6-7.4c3.9-0.4,7.5,2,8.3,5.7c0.1,0.6,0.2,1.1,0.2,1.7c0,2.3,0,4.6,0,6.9C120.3,33,120.3,33.2,120.2,33.3z"></path> <path class="st0" d="M200,18.8c1.1,0,2.1,0,3.1,0c0,0.3,0,0.6,0,0.9c-1,0-2,0-3.1,0c0,0.2,0,0.4,0,0.5c0,1.9,0,3.7,0,5.6 c0,3.6,2.6,6.5,6.3,6.8c0.1,0,0.2,0,0.3,0c0,0.3,0,0.6,0,0.9c-1.1,0-2.1-0.2-3.1-0.7c-2.8-1.4-4.4-3.7-4.4-6.8 c-0.1-4.3,0-8.5,0-12.8c0-0.1,0-0.1,0-0.2c0.3,0,0.6,0,0.9,0C200,15,200,16.9,200,18.8z"></path> <path class="st0" d="M77.1,18.6c0,0.3,0,0.6,0,0.9c-0.5,0.1-0.9,0.1-1.4,0.2c-3,0.7-5.1,3.3-5.2,6.3c0,2.3,0,4.6,0,6.8 c0,0.2,0,0.3,0,0.5c-0.3,0-0.6,0-0.9,0c0-0.1,0-0.2,0-0.4c0-2.4,0-4.7,0-7.1c0-4.5,4-7.2,7.1-7.3C76.8,18.6,76.9,18.6,77.1,18.6z"></path> <path class="st0" d="M254,18.5c0,0.3,0,0.6,0,0.9c-0.3,0-0.7,0.1-1,0.1c-3.2,0.5-5.5,3.2-5.6,6.4c0,2.2,0,4.5,0,6.7 c0,0.2,0,0.4,0,0.6c-0.3,0-0.6,0-0.9,0c0-0.1,0-0.3,0-0.4c0-2.3,0-4.5,0-6.8c0-3.8,2.6-6.9,6.4-7.5C253.3,18.6,253.6,18.6,254,18.5 z"></path> <path class="st0" d="M190.1,33.3c-0.3,0-0.6,0-0.9,0c0-0.1,0-0.3,0-0.4c0-2.4,0-4.7,0-7.1c0-4.5,4-7.2,7-7.3c0.1,0,0.3,0,0.4,0 c0,0.3,0,0.6,0,0.9c-0.3,0-0.7,0.1-1.1,0.1c-3.2,0.5-5.5,3.2-5.5,6.5c0,2.3,0,4.5,0,6.8C190.1,32.9,190.1,33.1,190.1,33.3z"></path> <path class="st0" d="M100.4,33.3c-0.3,0-0.6,0-0.9,0c0-4.8,0-9.6,0-14.5c0.3,0,0.6,0,0.9,0C100.4,23.6,100.4,28.4,100.4,33.3z"></path> <path class="st0" d="M100.4,16.3c-0.3,0-0.6,0-0.9,0c0-1.1,0-2.1,0-3.2c0.3,0,0.6,0,0.9,0C100.4,14.2,100.4,15.2,100.4,16.3z"></path> </g> </svg> 